<svg width="17" height="16" viewBox="0 0 17 16" xmlns="http://www.w3.org/2000/svg">
<path fill-rule="evenodd" clip-rule="evenodd" d="M16.3506 8.07906C16.3506 12.3424 12.8308 15.8622 8.56743 15.8622C4.31161 15.8622 0.785645 12.3424 0.785645 8.07906C0.785645 3.82327 4.30544 0.297302 8.56126 0.297302C12.8246 0.297302 16.3506 3.82327 16.3506 8.07906ZM4.33306 10.6999C4.33306 11.1997 4.55891 11.4518 4.83569 11.4518C5.05039 11.4518 5.25168 11.3836 5.40763 11.0901C6.06651 9.86478 6.9981 9.42198 8.52287 9.42198H8.62714V10.9263C8.62714 11.2314 8.85767 11.4694 9.17781 11.4694C9.40371 11.4694 9.57413 11.375 9.78486 11.1792L13.0602 8.11074C13.2272 7.95871 13.2881 7.79041 13.2881 7.62886C13.2881 7.47219 13.2272 7.30524 13.0602 7.15456L9.78486 4.10456C9.5515 3.88277 9.40583 3.79584 9.18405 3.79584C8.85767 3.79584 8.62714 4.04625 8.62714 4.35753V5.84872H8.52287C5.66091 5.84872 4.33306 7.68626 4.33306 10.6999Z"/>
</svg>
