<svg width="23" height="22" viewBox="0 0 23 22" fill="none" xmlns="http://www.w3.org/2000/svg">
<path d="M3.02045 19.6669H12.6172C12.2822 19.1171 12.0448 18.5071 11.9292 17.863H2.99503C2.22196 17.863 1.80394 17.4667 1.80394 16.6568V8.1497C1.80394 7.34734 2.22196 6.94515 2.99503 6.94515H15.6995C16.4726 6.94515 16.8981 7.34734 16.8981 8.1497V10.6387C17.2132 10.5896 17.5073 10.5612 17.8139 10.5612C18.1113 10.5612 18.413 10.5896 18.702 10.6354V5.47066C18.702 3.50429 17.6765 2.48041 15.6891 2.48041H3.02045C1.03309 2.48041 0 3.49674 0 5.47066V16.6766C0 18.6489 1.03309 19.6669 3.02045 19.6669ZM7.57415 10.1364H8.11737C8.44462 10.1364 8.55847 10.0392 8.55847 9.71207V9.16875C8.55847 8.84158 8.44462 8.73692 8.11737 8.73692H7.57415C7.24692 8.73692 7.13312 8.84158 7.13312 9.16875V9.71207C7.13312 10.0392 7.24692 10.1364 7.57415 10.1364ZM10.5922 10.1364H11.1279C11.4552 10.1364 11.5689 10.0392 11.5689 9.71207V9.16875C11.5689 8.84158 11.4552 8.73692 11.1279 8.73692H10.5922C10.2574 8.73692 10.1495 8.84158 10.1495 9.16875V9.71207C10.1495 10.0392 10.2574 10.1364 10.5922 10.1364ZM13.6011 10.1364H14.1443C14.4716 10.1364 14.5778 10.0392 14.5778 9.71207V9.16875C14.5778 8.84158 14.4716 8.73692 14.1443 8.73692H13.6011C13.2739 8.73692 13.16 8.84158 13.16 9.16875V9.71207C13.16 10.0392 13.2739 10.1364 13.6011 10.1364ZM4.5653 13.0991H5.10854C5.43578 13.0991 5.54204 13.0021 5.54204 12.6748V12.1316C5.54204 11.8044 5.43578 11.7073 5.10854 11.7073H4.5653C4.23806 11.7073 4.12425 11.8044 4.12425 12.1316V12.6748C4.12425 13.0021 4.23806 13.0991 4.5653 13.0991ZM7.57415 13.0991H8.11737C8.44462 13.0991 8.55847 13.0021 8.55847 12.6748V12.1316C8.55847 11.8044 8.44462 11.7073 8.11737 11.7073H7.57415C7.24692 11.7073 7.13312 11.8044 7.13312 12.1316V12.6748C7.13312 13.0021 7.24692 13.0991 7.57415 13.0991ZM10.5922 13.0991H11.1279C11.4552 13.0991 11.5689 13.0021 11.5689 12.6748V12.1316C11.5689 11.8044 11.4552 11.7073 11.1279 11.7073H10.5922C10.2574 11.7073 10.1495 11.8044 10.1495 12.1316V12.6748C10.1495 13.0021 10.2574 13.0991 10.5922 13.0991ZM4.5653 16.0695H5.10854C5.43578 16.0695 5.54204 15.9666 5.54204 15.6377V15.0961C5.54204 14.7672 5.43578 14.6718 5.10854 14.6718H4.5653C4.23806 14.6718 4.12425 14.7672 4.12425 15.0961V15.6377C4.12425 15.9666 4.23806 16.0695 4.5653 16.0695ZM7.57415 16.0695H8.11737C8.44462 16.0695 8.55847 15.9666 8.55847 15.6377V15.0961C8.55847 14.7672 8.44462 14.6718 8.11737 14.6718H7.57415C7.24692 14.6718 7.13312 14.7672 7.13312 15.0961V15.6377C7.13312 15.9666 7.24692 16.0695 7.57415 16.0695ZM10.5922 16.0695H11.1279C11.4552 16.0695 11.5689 15.9666 11.5689 15.6377V15.0961C11.5689 14.7672 11.4552 14.6718 11.1279 14.6718H10.5922C10.2574 14.6718 10.1495 14.7672 10.1495 15.0961V15.6377C10.1495 15.9666 10.2574 16.0695 10.5922 16.0695Z" fill="#15AABF"/>
<path d="M17.814 21.3432C20.3841 21.3432 22.5527 19.1957 22.5527 16.6028C22.5527 14.004 20.4085 11.8657 17.814 11.8657C15.2135 11.8657 13.0752 14.0116 13.0752 16.6028C13.0752 19.2108 15.2135 21.3432 17.814 21.3432Z" fill="#15AABF"/>
<path d="M15.6235 17.3857C15.2614 17.3857 14.9738 17.098 14.9738 16.7435C14.9738 16.3965 15.2689 16.1089 15.6235 16.1089H17.2261V13.9386C17.2261 13.5918 17.5137 13.3116 17.8682 13.3116C18.2228 13.3116 18.5104 13.5918 18.5104 13.9386V16.7435C18.5104 17.1055 18.2303 17.3857 17.8682 17.3857H15.6235Z" />
</svg>
