<svg width="20" height="20" viewBox="0 0 20 20" fill="none" xmlns="http://www.w3.org/2000/svg">
<path fill-rule="evenodd" clip-rule="evenodd" d="M7.5 3.33366C7.5 3.10354 7.68655 2.91699 7.91667 2.91699H12.0833C12.3135 2.91699 12.5 3.10354 12.5 3.33366C12.5 3.56378 12.3135 3.75033 12.0833 3.75033H7.91667C7.68655 3.75033 7.5 3.56378 7.5 3.33366Z" fill="white"/>
<path fill-rule="evenodd" clip-rule="evenodd" d="M0.832031 8.33301C0.832031 6.26194 2.51096 4.58301 4.58203 4.58301H15.4154C17.4864 4.58301 19.1654 6.26194 19.1654 8.33301V13.333C19.1654 15.4041 17.4864 17.083 15.4154 17.083H4.58203C2.51096 17.083 0.832031 15.4041 0.832031 13.333V8.33301ZM4.58203 5.41634C2.9712 5.41634 1.66536 6.72218 1.66536 8.33301V13.333C1.66536 14.9438 2.9712 16.2497 4.58203 16.2497H15.4154C17.0262 16.2497 18.332 14.9438 18.332 13.333V8.33301C18.332 6.72218 17.0262 5.41634 15.4154 5.41634H4.58203Z" fill="white"/>
<circle cx="10.0013" cy="10.8333" r="2.91667" stroke="white" stroke-width="0.833333"/>
<path d="M16.6667 8.33333C16.6667 8.79357 16.2936 9.16667 15.8333 9.16667C15.3731 9.16667 15 8.79357 15 8.33333C15 7.8731 15.3731 7.5 15.8333 7.5C16.0447 7.5 16.2376 7.57867 16.3845 7.70833C16.5576 7.86103 16.6667 8.08444 16.6667 8.33333Z" fill="white"/>
</svg>
