<?xml version="1.0" encoding="iso-8859-1"?>
<!-- Uploaded to: SVG Repo, www.svgrepo.com, Generator: SVG Repo Mixer Tools -->
<!DOCTYPE svg PUBLIC "-//W3C//DTD SVG 1.1//EN" "http://www.w3.org/Graphics/SVG/1.1/DTD/svg11.dtd">
<svg fill="#000000" version="1.1" id="Capa_1" xmlns="http://www.w3.org/2000/svg" xmlns:xlink="http://www.w3.org/1999/xlink" 
	 width="800px" height="800px" viewBox="0 0 186.521 186.521"
	 xml:space="preserve">
<g>
	<path d="M186.131,21.904c-0.896-2.409-3.229-4.027-5.801-4.027H6.185c-2.576,0-4.842,1.552-5.773,3.955
		c-0.916,2.366-0.271,5.104,1.603,6.812l77.649,70.783v43.271c-10.42,0.494-19.902,1.651-26.91,3.297
		c-6.072,1.427-14.143,3.967-14.143,9.539c0,4.646,5.462,7.885,17.19,10.195c9.538,1.881,22.174,2.915,35.581,2.915
		c0.231,0,0.457-0.024,0.675-0.067c0.218,0.043,0.444,0.067,0.675,0.067c13.406,0,26.043-1.034,35.581-2.915
		c11.728-2.311,17.189-5.551,17.189-10.195c0-5.572-8.072-8.112-14.143-9.539c-6.971-1.637-16.39-2.791-26.744-3.289V98.02
		l79.771-69.277C186.333,27.057,187.032,24.306,186.131,21.904z M138.199,155.513c-1.286,0.849-4.745,2.501-13.446,4.009
		c-8.826,1.528-20.197,2.37-32.02,2.37c-0.231,0-0.457,0.024-0.675,0.068c-0.218-0.044-0.444-0.068-0.675-0.068
		c-11.823,0-23.195-0.842-32.02-2.37c-8.701-1.507-12.16-3.16-13.446-4.009c2.831-1.871,13.233-5.073,33.748-6.06v2.656
		c0,1.864,1.511,3.375,3.375,3.375c1.864,0,3.375-1.511,3.375-3.375v-48.744l3.294,2.867c0.635,0.553,1.425,0.829,2.216,0.829
		c0.776,0,1.552-0.266,2.182-0.8l3.761-3.188v49.035c0,1.864,1.511,3.375,3.375,3.375s3.375-1.511,3.375-3.375v-2.647
		C125.022,150.458,135.376,153.648,138.199,155.513z M146.727,52.51H131.49c-1.864,0-3.375,1.511-3.375,3.375
		s1.511,3.375,3.375,3.375h7.465L91.954,99.238L46.028,59.26h63.187c1.864,0,2.476-1.511,2.476-3.375s-1.512-3.375-3.375-3.375
		H38.274L7.628,24.627h171.206L146.727,52.51z"/>
</g>
</svg>