<svg width="19" height="18" viewBox="0 0 19 18" fill="none" xmlns="http://www.w3.org/2000/svg">
<path d="M3.94686 13.2305H5.95724V11.7546H4.03244C3.33198 11.7546 2.95153 11.3872 2.95153 10.6538V3.23335C2.95153 2.50139 3.33198 2.13391 4.03244 2.13391H11.4852C12.1795 2.13391 12.5661 2.50139 12.5661 3.23335V4.87098H14.042V3.10453C14.042 1.49568 13.1968 0.657959 11.5769 0.657959H3.94686C2.31466 0.657959 1.47559 1.49568 1.47559 3.10453V10.784C1.47559 12.3915 2.31466 13.2305 3.94686 13.2305Z" fill="#868E96"/>
<path d="M7.69725 16.8122H15.3259C16.9471 16.8122 17.791 15.973 17.791 14.3656V6.68473C17.791 5.07724 16.9471 4.23816 15.3259 4.23816H7.69725C6.06369 4.23816 5.22461 5.07106 5.22461 6.68473V14.3656C5.22461 15.973 6.06369 16.8122 7.69725 16.8122ZM7.78283 15.3362C7.08718 15.3362 6.70056 14.9673 6.70056 14.2354V6.8149C6.70056 6.08295 7.08718 5.71546 7.78283 5.71546H15.2342C15.9285 5.71546 16.3151 6.08295 16.3151 6.8149V14.2354C16.3151 14.9673 15.9285 15.3362 15.2342 15.3362H7.78283ZM8.65686 8.73337C9.23286 8.74089 9.71366 8.26151 9.71366 7.67041C9.71366 7.08071 9.23421 6.61225 8.65686 6.61225C8.07058 6.61225 7.59253 7.0793 7.59253 7.67041C7.59253 8.2601 8.07058 8.72585 8.65686 8.73337ZM14.3752 8.73337C14.9526 8.74089 15.432 8.26151 15.432 7.67041C15.432 7.0793 14.954 6.61225 14.3752 6.61225C13.7903 6.61225 13.3061 7.0793 13.3061 7.67041C13.3061 8.2601 13.7903 8.72585 14.3752 8.73337ZM11.5143 11.597C12.0903 11.597 12.5697 11.1162 12.5697 10.5251C12.5697 9.94914 12.0889 9.47722 11.5143 9.47722C10.9294 9.47722 10.4562 9.94779 10.4562 10.5251C10.4562 11.1176 10.9281 11.597 11.5143 11.597ZM8.65551 14.4606C9.23286 14.4606 9.71231 13.9812 9.71231 13.3963C9.71231 12.8141 9.23151 12.3395 8.65551 12.3395C8.07058 12.3395 7.59871 12.8127 7.59871 13.3963C7.59871 13.9826 8.07058 14.4606 8.65551 14.4606ZM14.3752 14.4606C14.954 14.4606 15.432 13.9812 15.432 13.3963C15.432 12.8127 14.9526 12.3395 14.3752 12.3395C13.7917 12.3395 13.3136 12.8127 13.3136 13.3963C13.3136 13.9812 13.7917 14.4606 14.3752 14.4606Z" fill="#868E96"/>
</svg>
