<svg width="19" height="21" viewBox="0 0 19 21" xmlns="http://www.w3.org/2000/svg">
<path d="M3.5934 18.9377H14.3219C16.087 18.9377 17.1125 17.9122 17.1125 15.9474V6.21561L15.307 8.01954V15.796C15.307 16.6905 14.8344 17.1338 14.2173 17.1338H3.70389C2.84776 17.1338 2.37523 16.6905 2.37523 15.796V5.54584C2.37523 4.64958 2.84776 4.20042 3.70389 4.20042H11.5749L13.3788 2.39648H3.5934C1.61193 2.39648 0.571289 3.42202 0.571289 5.38674V15.9474C0.571289 17.9198 1.61193 18.9377 3.5934 18.9377Z" />
<path d="M7.07065 12.7889L8.94399 11.9964L17.3517 3.59626L15.946 2.2074L7.54761 10.6058L6.71727 12.4264C6.62704 12.6343 6.85925 12.8742 7.07065 12.7889ZM18.0546 2.90091L18.6976 2.24109C19.0521 1.8715 19.0604 1.36656 18.7092 1.02625L18.4676 0.778746C18.1541 0.468451 17.6366 0.516883 17.2929 0.852958L16.6489 1.49105L18.0546 2.90091Z" />
</svg>
