<svg width="18" height="17" viewBox="0 0 18 17" fill="none" xmlns="http://www.w3.org/2000/svg">
<path d="M0.5 14.5507C0.5 16.1014 1.34751 16.9492 2.96223 16.9492H15.5083C17.1406 16.9492 17.9796 16.1163 17.9796 14.5088V3.08939C17.9796 1.4819 17.1406 0.642822 15.5083 0.642822H6.4088C4.78142 0.642822 3.93617 1.4819 3.93617 3.08939V6.46184H2.26719C1.15586 6.46184 0.5 7.08065 0.5 8.14117V14.5507ZM1.97595 14.4788V8.41002C1.97595 8.11224 2.1566 7.93777 2.45432 7.93777H3.93617V14.4788C3.93617 15.0647 3.51324 15.4732 2.96223 15.4732C2.40506 15.4732 1.97595 15.0462 1.97595 14.4788ZM5.19394 15.4732C5.33528 15.1913 5.41212 14.8689 5.41212 14.4875V3.21957C5.41212 2.49304 5.79331 2.11877 6.50056 2.11877H15.4166C16.1238 2.11877 16.5037 2.49304 16.5037 3.21957V14.3786C16.5037 15.1052 16.1238 15.4732 15.4166 15.4732H5.19394ZM7.3274 5.33482H14.6007C14.8861 5.33482 15.1071 5.10761 15.1071 4.8236C15.1071 4.54576 14.8875 4.33226 14.6007 4.33226H7.3274C7.03586 4.33226 6.81621 4.54576 6.81621 4.8236C6.81621 5.10761 7.03721 5.33482 7.3274 5.33482ZM7.3274 7.93777H14.6007C14.8875 7.93777 15.1071 7.71811 15.1071 7.44027C15.1071 7.15625 14.8861 6.93524 14.6007 6.93524H7.3274C7.03721 6.93524 6.81621 7.15625 6.81621 7.44027C6.81621 7.71811 7.03586 7.93777 7.3274 7.93777ZM7.75426 13.179H9.63224C10.2156 13.179 10.5716 12.823 10.5716 12.2396V10.4886C10.5716 9.90176 10.2156 9.54575 9.63224 9.54575H7.75426C7.16469 9.54575 6.80868 9.90176 6.80868 10.4886V12.2396C6.80868 12.823 7.16469 13.179 7.75426 13.179ZM11.9087 10.5469H14.5945C14.8861 10.5469 15.0982 10.3334 15.0982 10.057C15.0982 9.76542 14.8861 9.54575 14.5945 9.54575H11.9087C11.6158 9.54575 11.4023 9.76542 11.4023 10.057C11.4023 10.3334 11.6171 10.5469 11.9087 10.5469ZM11.9087 13.179H14.5945C14.8861 13.179 15.0982 12.9655 15.0982 12.6877C15.0982 12.4036 14.8861 12.1765 14.5945 12.1765H11.9087C11.6171 12.1765 11.4023 12.4036 11.4023 12.6877C11.4023 12.9655 11.6158 13.179 11.9087 13.179Z"/>
</svg>
