<svg width="19" height="19" viewBox="0 0 19 19" fill="none" xmlns="http://www.w3.org/2000/svg">
<path d="M9.49895 4.37688C6.94495 4.37688 4.87595 6.44688 4.87595 8.99988C4.87595 11.5539 6.94495 13.6239 9.49895 13.6239C12.051 13.6239 14.122 11.5539 14.122 8.99988C14.122 6.44688 12.051 4.37688 9.49895 4.37688ZM9.49895 12.0039C7.83995 12.0039 6.49495 10.6589 6.49495 9.00088C6.49495 7.34188 7.83995 5.99788 9.49895 5.99788C11.158 5.99788 12.501 7.34188 12.501 9.00088C12.501 10.6589 11.158 12.0039 9.49895 12.0039Z" fill="url(#paint0_radial_311_333)"/>
<path d="M9.49895 4.37688C6.94495 4.37688 4.87595 6.44688 4.87595 8.99988C4.87595 11.5539 6.94495 13.6239 9.49895 13.6239C12.051 13.6239 14.122 11.5539 14.122 8.99988C14.122 6.44688 12.051 4.37688 9.49895 4.37688ZM9.49895 12.0039C7.83995 12.0039 6.49495 10.6589 6.49495 9.00088C6.49495 7.34188 7.83995 5.99788 9.49895 5.99788C11.158 5.99788 12.501 7.34188 12.501 9.00088C12.501 10.6589 11.158 12.0039 9.49895 12.0039Z" fill="url(#paint1_radial_311_333)"/>
<path d="M14.306 5.28488C14.9013 5.28488 15.384 4.80225 15.384 4.20688C15.384 3.61152 14.9013 3.12888 14.306 3.12888C13.7106 3.12888 13.228 3.61152 13.228 4.20688C13.228 4.80225 13.7106 5.28488 14.306 5.28488Z" fill="url(#paint2_radial_311_333)"/>
<path d="M14.306 5.28488C14.9013 5.28488 15.384 4.80225 15.384 4.20688C15.384 3.61152 14.9013 3.12888 14.306 3.12888C13.7106 3.12888 13.228 3.61152 13.228 4.20688C13.228 4.80225 13.7106 5.28488 14.306 5.28488Z" fill="url(#paint3_radial_311_333)"/>
<path d="M18.033 3.11088C17.564 1.90188 16.609 0.945883 15.4 0.478883C14.701 0.215883 13.962 0.0748827 13.214 0.0588827C12.251 0.0168827 11.946 0.00488281 9.50395 0.00488281C7.06195 0.00488281 6.74895 0.00488271 5.79395 0.0588827C5.04795 0.0738827 4.30895 0.214883 3.60995 0.478883C2.39995 0.945883 1.44495 1.90188 0.976953 3.11088C0.713953 3.81088 0.572953 4.54888 0.557953 5.29688C0.514953 6.25888 0.501953 6.56388 0.501953 9.00688C0.501953 11.4489 0.501953 11.7599 0.557953 12.7169C0.572953 13.4649 0.713953 14.2029 0.976953 14.9039C1.44595 16.1119 2.40095 17.0679 3.61095 17.5359C4.30695 17.8079 5.04595 17.9619 5.79595 17.9859C6.75895 18.0279 7.06395 18.0409 9.50595 18.0409C11.948 18.0409 12.261 18.0409 13.216 17.9859C13.963 17.9709 14.702 17.8289 15.402 17.5669C16.611 17.0979 17.566 16.1429 18.035 14.9339C18.298 14.2339 18.439 13.4959 18.454 12.7479C18.497 11.7859 18.51 11.4809 18.51 9.03788C18.51 6.59488 18.51 6.28488 18.454 5.32788C18.441 4.56988 18.301 3.81888 18.033 3.11088ZM16.815 12.6429C16.808 13.2189 16.704 13.7899 16.504 14.3309C16.199 15.1179 15.578 15.7399 14.792 16.0419C14.257 16.2409 13.693 16.3449 13.122 16.3529C12.172 16.3969 11.904 16.4079 9.46795 16.4079C7.02995 16.4079 6.78095 16.4079 5.81295 16.3529C5.24395 16.3459 4.67795 16.2409 4.14395 16.0419C3.35495 15.7409 2.72995 15.1189 2.42495 14.3309C2.22895 13.7969 2.12295 13.2319 2.11395 12.6619C2.07095 11.7119 2.06095 11.4439 2.06095 9.00788C2.06095 6.57088 2.06095 6.32188 2.11395 5.35288C2.12095 4.77688 2.22495 4.20688 2.42495 3.66588C2.72995 2.87688 3.35495 2.25588 4.14395 1.95388C4.67795 1.75588 5.24395 1.65088 5.81295 1.64288C6.76395 1.59988 7.03095 1.58788 9.46795 1.58788C11.905 1.58788 12.155 1.58788 13.122 1.64288C13.693 1.64988 14.257 1.75488 14.792 1.95388C15.578 2.25688 16.199 2.87888 16.504 3.66588C16.7 4.19988 16.806 4.76488 16.815 5.33488C16.858 6.28588 16.869 6.55288 16.869 8.98988C16.869 11.4259 16.869 11.6879 16.826 12.6439H16.815V12.6429Z" fill="url(#paint4_radial_311_333)"/>
<path d="M18.033 3.11088C17.564 1.90188 16.609 0.945883 15.4 0.478883C14.701 0.215883 13.962 0.0748827 13.214 0.0588827C12.251 0.0168827 11.946 0.00488281 9.50395 0.00488281C7.06195 0.00488281 6.74895 0.00488271 5.79395 0.0588827C5.04795 0.0738827 4.30895 0.214883 3.60995 0.478883C2.39995 0.945883 1.44495 1.90188 0.976953 3.11088C0.713953 3.81088 0.572953 4.54888 0.557953 5.29688C0.514953 6.25888 0.501953 6.56388 0.501953 9.00688C0.501953 11.4489 0.501953 11.7599 0.557953 12.7169C0.572953 13.4649 0.713953 14.2029 0.976953 14.9039C1.44595 16.1119 2.40095 17.0679 3.61095 17.5359C4.30695 17.8079 5.04595 17.9619 5.79595 17.9859C6.75895 18.0279 7.06395 18.0409 9.50595 18.0409C11.948 18.0409 12.261 18.0409 13.216 17.9859C13.963 17.9709 14.702 17.8289 15.402 17.5669C16.611 17.0979 17.566 16.1429 18.035 14.9339C18.298 14.2339 18.439 13.4959 18.454 12.7479C18.497 11.7859 18.51 11.4809 18.51 9.03788C18.51 6.59488 18.51 6.28488 18.454 5.32788C18.441 4.56988 18.301 3.81888 18.033 3.11088ZM16.815 12.6429C16.808 13.2189 16.704 13.7899 16.504 14.3309C16.199 15.1179 15.578 15.7399 14.792 16.0419C14.257 16.2409 13.693 16.3449 13.122 16.3529C12.172 16.3969 11.904 16.4079 9.46795 16.4079C7.02995 16.4079 6.78095 16.4079 5.81295 16.3529C5.24395 16.3459 4.67795 16.2409 4.14395 16.0419C3.35495 15.7409 2.72995 15.1189 2.42495 14.3309C2.22895 13.7969 2.12295 13.2319 2.11395 12.6619C2.07095 11.7119 2.06095 11.4439 2.06095 9.00788C2.06095 6.57088 2.06095 6.32188 2.11395 5.35288C2.12095 4.77688 2.22495 4.20688 2.42495 3.66588C2.72995 2.87688 3.35495 2.25588 4.14395 1.95388C4.67795 1.75588 5.24395 1.65088 5.81295 1.64288C6.76395 1.59988 7.03095 1.58788 9.46795 1.58788C11.905 1.58788 12.155 1.58788 13.122 1.64288C13.693 1.64988 14.257 1.75488 14.792 1.95388C15.578 2.25688 16.199 2.87888 16.504 3.66588C16.7 4.19988 16.806 4.76488 16.815 5.33488C16.858 6.28588 16.869 6.55288 16.869 8.98988C16.869 11.4259 16.869 11.6879 16.826 12.6439H16.815V12.6429Z" fill="url(#paint5_radial_311_333)"/>
<defs>
<radialGradient id="paint0_radial_311_333" cx="0" cy="0" r="1" gradientUnits="userSpaceOnUse" gradientTransform="translate(4.49994 20.9999) rotate(-63.9465) scale(25.045 25.0061)">
<stop offset="0.0625" stop-color="#FECF03"/>
<stop offset="0.484375" stop-color="#FD0960"/>
<stop offset="0.677083" stop-color="#D406B5"/>
<stop offset="1" stop-color="#B603F2"/>
</radialGradient>
<radialGradient id="paint1_radial_311_333" cx="0" cy="0" r="1" gradientUnits="userSpaceOnUse" gradientTransform="translate(2.99994 -2.00011) rotate(70.0169) scale(11.7047 11.6865)">
<stop stop-color="#7036FC"/>
<stop offset="1" stop-color="#7036FC" stop-opacity="0"/>
</radialGradient>
<radialGradient id="paint2_radial_311_333" cx="0" cy="0" r="1" gradientUnits="userSpaceOnUse" gradientTransform="translate(4.49994 20.9999) rotate(-63.9465) scale(25.045 25.0061)">
<stop offset="0.0625" stop-color="#FECF03"/>
<stop offset="0.484375" stop-color="#FD0960"/>
<stop offset="0.677083" stop-color="#D406B5"/>
<stop offset="1" stop-color="#B603F2"/>
</radialGradient>
<radialGradient id="paint3_radial_311_333" cx="0" cy="0" r="1" gradientUnits="userSpaceOnUse" gradientTransform="translate(2.99994 -2.00011) rotate(70.0169) scale(11.7047 11.6865)">
<stop stop-color="#7036FC"/>
<stop offset="1" stop-color="#7036FC" stop-opacity="0"/>
</radialGradient>
<radialGradient id="paint4_radial_311_333" cx="0" cy="0" r="1" gradientUnits="userSpaceOnUse" gradientTransform="translate(4.49994 20.9999) rotate(-63.9465) scale(25.045 25.0061)">
<stop offset="0.0625" stop-color="#FECF03"/>
<stop offset="0.484375" stop-color="#FD0960"/>
<stop offset="0.677083" stop-color="#D406B5"/>
<stop offset="1" stop-color="#B603F2"/>
</radialGradient>
<radialGradient id="paint5_radial_311_333" cx="0" cy="0" r="1" gradientUnits="userSpaceOnUse" gradientTransform="translate(2.99994 -2.00011) rotate(70.0169) scale(11.7047 11.6865)">
<stop stop-color="#7036FC"/>
<stop offset="1" stop-color="#7036FC" stop-opacity="0"/>
</radialGradient>
</defs>
</svg>
