<svg width="17" height="16" viewBox="0 0 17 16" xmlns="http://www.w3.org/2000/svg">
<path d="M1.792 15.1294C2.03322 15.1294 2.26027 15.0426 2.55287 14.8785L6.23419 12.893L10.2497 15.1389C10.5588 15.3112 10.8879 15.3961 11.206 15.3961C11.513 15.3961 11.8215 15.316 12.095 15.1609L15.8559 13.0319C16.3744 12.7467 16.6022 12.3376 16.6022 11.7678V1.64867C16.6022 1.01797 16.2242 0.644013 15.5963 0.644013C15.3551 0.644013 15.1294 0.732757 14.8293 0.896835L11.0101 3.02023L7.04555 0.622766C6.76591 0.462756 6.45749 0.37793 6.14771 0.37793C5.84261 0.37793 5.5375 0.460044 5.27277 0.613275L1.52622 2.73606C1.01394 3.02881 0.786133 3.42703 0.786133 3.9955V14.124C0.786133 14.7561 1.16416 15.1294 1.792 15.1294ZM5.57095 11.5582L2.44861 13.276C2.4001 13.2979 2.35429 13.3204 2.31256 13.3204C2.23059 13.3204 2.18343 13.2563 2.18343 13.1566V4.37609C2.18343 4.1641 2.25531 4.03739 2.45781 3.91972L5.32279 2.25406C5.4126 2.20539 5.48733 2.16426 5.57095 2.11559V11.5582ZM6.98724 11.6028V2.29549C7.06257 2.33934 7.15161 2.38589 7.22698 2.42974L10.4011 4.34324V13.5133C10.3011 13.4571 10.1949 13.4057 10.0886 13.3495L6.98724 11.6028ZM11.8174 13.6258V4.21232L14.937 2.50824C14.9801 2.48293 15.0232 2.46786 15.0588 2.46786C15.1483 2.46786 15.2049 2.53205 15.2049 2.62636V11.3702C15.2049 11.587 15.1255 11.7164 14.9305 11.8314L12.1591 13.4348C12.0461 13.5026 11.9304 13.5704 11.8174 13.6258Z"/>
</svg>
